<?xml version="1.0" encoding="utf-8"?>
<!-- Generated by IcoMoon.io -->
<svg version="1.1" xmlns="http://www.w3.org/2000/svg" xmlns:xlink="http://www.w3.org/1999/xlink" width="752" height="32" viewBox="0 0 752 32">
<svg id="check" width="32" height="32" viewBox="0 0 32 32" x="0" y="0">
<path fill="#fbfbfb" d="M8 13.333l-2.667 2.667 8 8 13.333-13.333-2.667-2.667-10.667 10.667-5.333-5.333z"></path>
</svg>
<symbol id="Arrow-right" viewBox="0 0 40 32">
<path fill="#fbfbfb" style="fill: var(--color1, #fbfbfb)" d="M39.436 17.075c0.767-0.795 0.745-2.061-0.049-2.828l-12.948-12.504c-0.794-0.767-2.061-0.745-2.828 0.049s-0.745 2.061 0.049 2.828l11.509 11.115-11.114 11.509c-0.767 0.795-0.745 2.061 0.049 2.828s2.061 0.745 2.828-0.049l12.504-12.948zM2.037 18.314l35.995-0.628-0.070-3.999-35.995 0.628 0.070 3.999z"></path>
</symbol>
<symbol id="icon-Arrow-up" viewBox="0 0 28 32">
<path fill="#fbfbfb" style="fill: var(--color1, #fbfbfb)" d="M25.236 3.149c-0.145-1.029-1.096-1.747-2.126-1.602l-16.776 2.358c-1.029 0.145-1.747 1.097-1.602 2.126s1.097 1.747 2.126 1.602l14.912-2.096 2.096 14.912c0.145 1.029 1.097 1.747 2.126 1.602s1.747-1.096 1.602-2.126l-2.358-16.776zM4.484 31.604l20.391-27.060-3.007-2.266-20.391 27.060 3.007 2.266z"></path>
</symbol>
</svg>
