<?xml version="1.0" encoding="utf-8"?>
<!-- Generated by IcoMoon.io -->
<svg version="1.1" xmlns="http://www.w3.org/2000/svg" xmlns:xlink="http://www.w3.org/1999/xlink" width="752" height="32" viewBox="0 0 752 32">
<svg id="check" width="32" height="32" viewBox="0 0 32 32" x="0" y="0">
<path fill="#fbfbfb" d="M8 13.333l-2.667 2.667 8 8 13.333-13.333-2.667-2.667-10.667 10.667-5.333-5.333z"></path>
</svg>
<symbol id="Arrow" viewBox="0 0 19 15">
<path fill="#fbfbfb" style="fill: var(--color1, #fbfbfb)" d="M18.486 8.004c0.36-0.372 0.349-0.966-0.023-1.326l-6.069-5.861c-0.372-0.36-0.966-0.349-1.326 0.023s-0.349 0.966 0.023 1.326l5.395 5.21-5.21 5.395c-0.36 0.372-0.349 0.966 0.023 1.326s0.966 0.349 1.326-0.023l5.861-6.069zM0.955 8.585l16.872-0.295-0.033-1.875-16.872 0.295 0.033 1.875z"></path>
</symbol>
<symbol id="Arrow-up" viewBox="0 0 13 15">
<path fill="#fbfbfb" style="fill: var(--color1, #fbfbfb)" d="M11.314 1.476c-0.068-0.483-0.514-0.819-0.997-0.751l-7.864 1.105c-0.483 0.068-0.819 0.514-0.751 0.997s0.514 0.819 0.997 0.751l6.99-0.982 0.982 6.99c0.068 0.483 0.514 0.819 0.997 0.751s0.819-0.514 0.751-0.997l-1.105-7.864zM1.587 14.814l9.558-12.684-1.409-1.062-9.558 12.684 1.409 1.062z"></path>
</symbol>
</svg>
